<svg width="512" height="512" viewBox="0 0 512 512" fill="none" xmlns="http://www.w3.org/2000/svg">
<circle cx="256" cy="256" r="255.5" fill="#28262C" stroke="black"/>
<rect x="143" y="109" width="226" height="295" rx="7" fill="#D9D9D9"/>
<path d="M153 154.5C153 146.492 159.492 140 167.5 140H344.5C352.508 140 359 146.492 359 154.5V154.5C359 162.508 352.508 169 344.5 169H167.5C159.492 169 153 162.508 153 154.5V154.5Z" fill="#7E7E7E"/>
<path d="M153 188.5C153 180.492 159.492 174 167.5 174H344.5C352.508 174 359 180.492 359 188.5V188.5C359 196.508 352.508 203 344.5 203H167.5C159.492 203 153 196.508 153 188.5V188.5Z" fill="#7E7E7E"/>
<path d="M153 222.5C153 214.492 159.492 208 167.5 208H303.5C311.508 208 318 214.492 318 222.5V222.5C318 230.508 311.508 237 303.5 237H167.5C159.492 237 153 230.508 153 222.5V222.5Z" fill="#7E7E7E"/>
</svg>
